<svg width="800" height="600" xmlns="http://www.w3.org/2000/svg">
 <g>
  <title>Layer 1</title>
  <rect fill="url(#svg_90)" x="0.9091" y="-28.1819" width="800" height="800" id="svg_15"/>
  <path stroke-width="2" stroke="#0f0f00" stroke-opacity="0.5" fill="url(#svg_29)" opacity="undefined" d="m394.5,531c-126.24309,0 -228.5,-101.36187 -228.5,-226.5c0,-125.13813 102.25691,-226.5 228.5,-226.5c126.24309,0 228.5,101.36187 228.5,226.5c0,125.13813 -102.25691,226.5 -228.5,226.5z" id="svg_17"/>
  <path stroke-width="2" stroke-opacity="0.5" stroke="#000000" fill="#f4f4f4" opacity="undefined" d="m400.55556,531c-123.20442,0 -223,-100.91436 -223,-225.5c0,-124.58564 99.79558,-225.5 223,-225.5c123.20442,0 223,100.91436 223,225.5c0,124.58564 -99.79558,225.5 -223,225.5z" id="svg_1"/>
  <path stroke="#000000" stroke-width="2" stroke-opacity="0.5" fill="url(#svg_21)" opacity="undefined" d="m400.55557,527.32285c-120.69311,0 -218.45452,-99.06309 -218.45452,-221.36321c0,-122.30012 97.76141,-221.36321 218.45452,-221.36321c120.6931,0 218.45451,99.06309 218.45451,221.36321c0,122.30012 -97.76141,221.36321 -218.45451,221.36321z" id="svg_4"/>
  <path stroke="#000000" id="svg_93" d="m401.35233,387.00369l-119.6918,86.95303l45.75342,-140.65536l-119.66486,-86.95303l147.91719,0.02695l39.31345,-120.94475l6.41302,-19.64325l45.67258,140.56105l147.95761,0l-119.71875,86.95303l45.76689,140.69578l-119.71875,-86.99345l0,0z" stroke-opacity="0.1" stroke-width="2" fill="url(#svg_102)"/>
  <text font-weight="bold" fill="url(#svg_23)" x="283.26866" y="287.56447" id="svg_18" stroke-width="0" font-size="16" font-family="'Cinzel'" text-anchor="start" xml:space="preserve" stroke="#000" transform="matrix(1.14169 0 0 2.29233 -116.913 -385.053)">"Ko drugom jamu kopa, sam u nju pada."</text>
  <rect transform="rotate(14.3186 179.985 245.156)" stroke-width="0.1" stroke="#000000" id="svg_2" height="9" width="9.06828" y="240.65644" x="175.4504" stroke-opacity="0.5" fill="#969696"/>
  <rect transform="rotate(-15.2478 181.91 372.863)" stroke="#000000" stroke-width="0.1" id="svg_3" height="9" width="8.53228" y="368.36347" x="177.64363" stroke-opacity="0.5" fill="#7a7a7a"/>
  <text xml:space="preserve" text-anchor="start" font-family="'Cinzel'" font-size="54" id="svg_27" y="150.00133" x="313.63849" stroke-width="0" stroke="#000" fill="url(#svg_23)">#1</text>
 </g>
 <defs>
  <linearGradient y2="0.29688" x2="1" y1="0" x1="0" id="svg_21">
   <stop offset="0" stop-color="#e5e5e5"/>
   <stop offset="0.49609" stop-opacity="0.99219" stop-color="#ffffff"/>
   <stop offset="1" stop-opacity="0.99609" stop-color="#d6d6d6"/>
  </linearGradient>
  <linearGradient y2="0" x2="1" y1="0" x1="0" id="svg_23">
   <stop offset="0" stop-opacity="0.98828" stop-color="#7c7c7c"/>
   <stop offset="0.51953" stop-opacity="0.99609" stop-color="#999999"/>
   <stop offset="1" stop-opacity="0.98828" stop-color="#7c7c7c"/>
   <stop offset="NaN" stop-opacity="0" stop-color="0"/>
   <stop offset="NaN" stop-opacity="0" stop-color="0"/>
   <stop offset="NaN" stop-opacity="0" stop-color="0"/>
   <stop offset="NaN" stop-opacity="0" stop-color="0"/>
   <stop offset="NaN" stop-opacity="0" stop-color="0"/>
   <stop offset="NaN" stop-opacity="0" stop-color="0"/>
   <stop offset="NaN" stop-opacity="0" stop-color="0"/>
   <stop offset="NaN" stop-opacity="0" stop-color="0"/>
   <stop offset="NaN" stop-opacity="0" stop-color="0"/>
   <stop offset="NaN" stop-opacity="0" stop-color="0"/>
   <stop offset="NaN" stop-opacity="0" stop-color="0"/>
   <stop offset="NaN" stop-opacity="0" stop-color="0"/>
  </linearGradient>
  <linearGradient spreadMethod="pad" y2="0" x2="0" y1="1" x1="0" id="svg_29">
   <stop offset="0" stop-opacity="0.99609" stop-color="#00000"/>
   <stop offset="0.54688" stop-opacity="0.98828" stop-color="#c1c1c1"/>
   <stop offset="1" stop-opacity="0.99219" stop-color="#a0a0a0"/>
   <stop offset="NaN" stop-opacity="0" stop-color="0"/>
   <stop offset="NaN" stop-opacity="0" stop-color="0"/>
   <stop offset="NaN" stop-opacity="0" stop-color="0"/>
   <stop offset="NaN" stop-opacity="0" stop-color="0"/>
   <stop offset="NaN" stop-opacity="0" stop-color="0"/>
   <stop offset="NaN" stop-opacity="0" stop-color="0"/>
   <stop offset="NaN" stop-opacity="0" stop-color="0"/>
   <stop offset="NaN" stop-opacity="0" stop-color="0"/>
   <stop offset="NaN" stop-opacity="0" stop-color="0"/>
   <stop offset="NaN" stop-opacity="0" stop-color="0"/>
   <stop offset="NaN" stop-opacity="0" stop-color="0"/>
   <stop offset="NaN" stop-opacity="0" stop-color="0"/>
   <stop offset="NaN" stop-opacity="0" stop-color="0"/>
   <stop offset="NaN" stop-opacity="0" stop-color="0"/>
   <stop offset="NaN" stop-opacity="0" stop-color="0"/>
   <stop offset="NaN" stop-opacity="0" stop-color="0"/>
   <stop offset="NaN" stop-opacity="0" stop-color="0"/>
   <stop offset="NaN" stop-opacity="0" stop-color="0"/>
   <stop offset="NaN" stop-opacity="0" stop-color="0"/>
   <stop offset="NaN" stop-opacity="0" stop-color="0"/>
   <stop offset="NaN" stop-opacity="0" stop-color="0"/>
  </linearGradient>
  <linearGradient y2="1" x2="0.55469" y1="0" x1="0" id="svg_90">
   <stop offset="0" stop-opacity="0.99609" stop-color="#007f3f"/>
   <stop offset="1" stop-opacity="0.99219" stop-color="#004420"/>
  </linearGradient>
  <linearGradient y2="0.29688" x2="1" y1="0" x1="0" id="svg_102">
   <stop stop-opacity="0.99609" offset="0" stop-color="#ffffaa"/>
   <stop offset="0.49609" stop-opacity="0.99219" stop-color="#ffffef"/>
   <stop offset="1" stop-opacity="0.99219" stop-color="#ffffce"/>
  </linearGradient>
 </defs>
</svg>