<svg width="800" height="600" xmlns="http://www.w3.org/2000/svg">
 <g>
  <title>Layer 1</title>
  <g id="svg_9" stroke="null">
   <ellipse fill="#fff" cx="413.54766" cy="310.97982" id="svg_1" rx="236.32875" ry="231.63939" stroke="#000"/>
   <ellipse fill="#fff" cx="405.78098" cy="355.64571" id="svg_2" rx="19.97144" ry="66.47947" stroke="#000"/>
   <path fill="none" id="svg_3" d="m292.60947,403.42783c2.21905,4.15497 2.60316,5.92648 4.4381,8.30993c2.90133,3.76855 3.27149,8.62021 4.4381,10.38742c2.60864,3.95158 4.4381,4.15497 8.8762,8.30993c4.4381,4.15497 6.65715,8.30993 8.8762,12.4649c2.21905,4.15497 6.65715,6.23245 8.8762,8.30993c2.21905,2.07748 6.4743,2.8812 8.8762,8.30993c0.84921,1.91936 6.09514,7.0039 15.53335,12.4649c8.44177,4.88444 19.97144,10.38742 28.84764,14.54238c4.4381,2.07748 6.68579,1.7447 8.8762,2.07748c6.92661,1.05231 31.06669,6.23245 42.16194,6.23245c13.3143,0 22.19049,0 26.62859,0c6.65715,0 15.81899,1.80607 22.19049,0c7.65758,-2.17062 13.16816,-6.5322 17.75239,-8.30993c6.48311,-2.51405 10.70565,-2.28087 13.3143,-6.23245c2.33323,-3.53441 4.04851,-4.35835 6.65715,-8.30993c2.33323,-3.53441 1.19939,-8.42107 2.21905,-12.4649c1.14,-4.5211 3.92823,-8.36553 4.4381,-10.38742c1.14,-4.5211 5.53313,-8.05767 6.65715,-14.54238c0.35546,-2.05067 -0.68228,-6.61887 2.21905,-10.38742c1.83494,-2.38345 4.82221,-5.92648 6.65715,-8.30993c2.90133,-3.76855 4.4381,-8.30993 4.4381,-10.38742c0,-2.07748 0,-4.15497 2.21905,-6.23245l0,-2.07748" stroke="#000"/>
   <ellipse fill="#fff" cx="311.47139" cy="247.61658" id="svg_4" rx="29.95717" ry="22.85232" stroke="#000"/>
   <ellipse fill="#fff" cx="515.62393" cy="243.46161" id="svg_5" rx="54.36671" ry="56.09205" stroke="#000"/>
   <path fill="none" id="svg_6" d="m188.31415,235.15168c-2.21905,0 -5.73798,0.86052 -8.8762,-2.07748c-1.56907,-1.469 -1.05244,-2.38776 -2.21905,-4.15497c-2.60864,-3.95161 -6.82604,-2.87252 -8.8762,-2.07748c-2.8993,1.12433 -4.4381,4.15497 -4.4381,6.23245c0,2.07748 0,4.15497 0,6.23245c0,6.23245 0.52063,8.6262 2.21905,12.4649c1.20095,2.71437 2.21905,4.15497 2.21905,6.23245c0,2.07748 3.23715,5.59557 4.4381,8.30993c0.84921,1.91933 0,4.15497 0,6.23245c0,4.15497 0,6.23245 0,8.30993c0,2.07748 0,4.15497 0,6.23245c0,2.07748 0,4.15497 0,6.23245l2.21905,2.07748l0,2.07748" stroke="#000"/>
   <path fill="none" id="svg_7" d="m627.68592,212.29936c0,-2.07748 0,-4.15497 0,-8.30993c0,-4.15497 0.38411,-10.08148 2.21905,-12.4649c2.90133,-3.76855 2.38794,-5.43742 4.4381,-6.23245c5.79866,-2.24866 5.9769,-5.10812 8.8762,-6.23245c2.05016,-0.79503 4.82221,-0.30594 6.65715,2.07748c2.90133,3.76855 2.21905,6.23245 2.21905,10.38742c0,4.15497 -1.28607,8.48821 0,12.4649c2.31853,7.16909 3.92823,8.3655 4.4381,10.38742c1.14,4.52113 2.21905,8.30993 2.21905,10.38742c0,4.15497 0,6.23245 0,10.38742c0,2.07748 0,4.15497 0,8.30993c0,6.23245 0,12.4649 0,16.61987c0,4.15497 -1.01966,6.34359 0,10.38742c1.14,4.52113 4.4381,8.30993 4.4381,10.38742c0,4.15497 0,6.23245 0,10.38742c0,2.07748 0,4.15497 0,6.23245c0,2.07748 0,4.15497 0,6.23245c0,2.07748 -2.21905,4.15497 -4.4381,4.15497c-2.21905,0 -4.4381,0 -6.65715,0l-2.21905,0" stroke="#000"/>
   <rect fill="#fff" x="174.99986" y="52.33314" width="277.38116" height="101.79668" id="svg_8" stroke="#000"/>
  </g>
  <text xml:space="preserve" text-anchor="start" font-family="Noto Sans JP" font-size="24" id="svg_10" y="329" x="338" stroke-width="0" stroke="#000" fill="#000000">TEST TEXT</text>
 </g>

</svg>